<?xml version="1.0" encoding="utf-8"?>
<!-- Generator: Adobe Illustrator 19.1.0, SVG Export Plug-In . SVG Version: 6.00 Build 0)  -->
<svg version="1.1" id="Layer_1" xmlns="http://www.w3.org/2000/svg" xmlns:xlink="http://www.w3.org/1999/xlink" x="0px" y="0px"
	 viewBox="0 0 78 102" style="enable-background:new 0 0 78 102;" xml:space="preserve">
<style type="text/css">
	.st0{fill:#41903C;}
	.st1{fill:#F36F21;}
</style>
<path class="st0" d="M71.2,0.9H7.6c-3.7,0-6.8,3-6.8,6.8v86.5c0,3.7,3,6.8,6.8,6.8h63.6c3.7,0,6.8-3,6.8-6.8V7.6
	C78,3.9,74.9,0.9,71.2,0.9z M39.9,97.4c-1.3,0-2.4-1.1-2.4-2.4s1.1-2.4,2.4-2.4s2.4,1.1,2.4,2.4S41.2,97.4,39.9,97.4z M70.2,89.5
	H9.5V10.3h60.7C70.2,10.3,70.2,89.5,70.2,89.5z"/>
<path class="st1" d="M39.9,28.8c-9.6,0-17.4,7.8-17.4,17.4s7.8,17.4,17.4,17.4s17.4-7.8,17.4-17.4C57.3,36.6,49.5,28.8,39.9,28.8z
	 M49.1,48.6h-6.8v6.8h-4.8v-6.8h-6.8v-4.8h6.8V37h4.8v6.8h6.8V48.6z"/>
</svg>
