<?xml version="1.0" encoding="utf-8"?>
<!-- Generator: Adobe Illustrator 19.1.0, SVG Export Plug-In . SVG Version: 6.00 Build 0)  -->
<svg version="1.1" id="Layer_1" xmlns="http://www.w3.org/2000/svg" xmlns:xlink="http://www.w3.org/1999/xlink" x="0px" y="0px"
	 viewBox="0 0 86 81" style="enable-background:new 0 0 86 81;" xml:space="preserve">
<style type="text/css">
	.st0{fill:#00ACBF;}
	.st1{fill:#FF3E4A;}
</style>
<path class="st0" d="M47.2,3.3c-5.4,0-10.5,1.1-15.1,3.1L29.2,0l-6.6,14.3l15.1,4.6L35,12.8c3.8-1.6,7.9-2.5,12.2-2.5
	c17.4,0,31.6,14.2,31.6,31.6S64.6,73.5,47.2,73.5c-10.7,0-20.1-5.3-25.9-13.4l0,0c-0.6-1-1.7-1.8-3-1.8c-2,0-3.5,1.6-3.5,3.5
	c0,0.9,0.3,1.7,0.8,2.3l0,0c7,9.9,18.6,16.4,31.7,16.4C68.7,80.5,86,63.2,86,41.8C85.9,20.6,68.6,3.3,47.2,3.3z"/>
<g>
	<path class="st1" d="M16.8,48c0,0.7-0.6,1.3-1.3,1.3H2.2c-0.7,0-1.3-0.6-1.3-1.3v-0.8c0-0.7,0.4-1.4,1.2-2.2
		c1.3-1.2,2.4-2.3,3.3-3.2c0.9-0.9,1.9-2,2.9-3.3c2.1-2.6,3.2-5,3.2-7.1c0-2-1.1-3.2-3.2-3.2c-1.3,0-2.5,0.7-3.4,2
		c-0.3,0.5-0.7,0.7-1.2,0.7c-0.2,0-0.4-0.1-0.7-0.2l-1-0.5C1.5,30,1.3,29.6,1.3,29c0-0.2,0-0.4,0.1-0.5C3.1,25.4,5.1,24,8.6,24
		c2.2,0,4,0.6,5.2,1.9s1.9,2.8,1.9,4.6c0,2.6-1.3,5.7-2.7,7.8c-0.7,1-1.6,2.1-2.6,3.2S8.6,43.4,8,43.9c-0.6,0.5-1.2,1-1.8,1.5h9.1
		c0.7,0,1.3,0.6,1.3,1.3V48H16.8z"/>
	<path class="st1" d="M31.8,43.6v4.5c0,0.7-0.6,1.3-1.3,1.3h-1.4c-0.7,0-1.3-0.6-1.3-1.3v-4.5H17.5c-0.7,0-1.3-0.6-1.3-1.2v-0.7
		c0-0.6,0.3-1.4,0.8-2.3l8.2-13.8c0.5-0.8,1.1-1.2,1.9-1.2h1.5c0.7,0,1.2,0.5,1.2,1.1c0,0.2-0.1,0.4-0.2,0.6l-8,13.4h6.1v-4.9
		c0-0.7,0.6-1.3,1.3-1.3h1.5c0.7,0,1.3,0.6,1.3,1.3v4.9h1.9c0.7,0,1.3,0.6,1.3,1.3v1.5c0,0.7-0.6,1.3-1.3,1.3
		C33.7,43.6,31.8,43.6,31.8,43.6z"/>
</g>
<g>
	<path class="st0" d="M60.1,58.8c-0.8,0-1.5-0.3-2.1-0.9L45.3,45.2V20.9c0-1.7,1.3-3,3-3s3,1.3,3,3v21.8l10.9,10.9
		c1.2,1.2,1.2,3.1,0,4.2C61.6,58.5,60.8,58.8,60.1,58.8z"/>
</g>
</svg>
