<?xml version="1.0" encoding="utf-8"?>
<!-- Generator: Adobe Illustrator 19.1.0, SVG Export Plug-In . SVG Version: 6.00 Build 0)  -->
<svg version="1.1" id="Layer_1" xmlns="http://www.w3.org/2000/svg" xmlns:xlink="http://www.w3.org/1999/xlink" x="0px" y="0px"
	 viewBox="0 0 130 78" style="enable-background:new 0 0 130 78;" xml:space="preserve">
<style type="text/css">
	.st0{fill:#00ACBF;}
	.st1{fill:none;stroke:#FF3E4A;stroke-width:7;stroke-linecap:round;stroke-miterlimit:10;}
</style>
<path class="st0" d="M89.4,7.5c17.4,0,31.6,14.2,31.6,31.6s-14.2,31.6-31.6,31.6S57.8,56.6,57.8,39.1S72,7.5,89.4,7.5 M89.4,0.4
	C68,0.4,50.7,17.7,50.7,39.1S68,77.8,89.4,77.8s38.7-17.3,38.7-38.7S110.8,0.4,89.4,0.4L89.4,0.4z"/>
<polyline class="st1" points="93.6,25.4 89.4,39.1 99.8,56.7 "/>
<path class="st0" d="M67.1,10.2l-8.3,8.3c-1.2,1.2-3.2,1.2-4.4,0l0,0c-1.2-1.2-1.2-3.2,0-4.4l8.3-8.3c1.2-1.2,3.2-1.2,4.4,0l0,0
	C68.3,7,68.3,9,67.1,10.2z"/>
<path class="st0" d="M111,10.2l8.3,8.3c1.2,1.2,3.2,1.2,4.4,0l0,0c1.2-1.2,1.2-3.2,0-4.4l-8.3-8.3c-1.2-1.2-3.2-1.2-4.4,0l0,0
	C109.7,7,109.7,9,111,10.2z"/>
<line class="st1" x1="15.3" y1="23.3" x2="39.8" y2="23.3"/>
<line class="st1" x1="6.4" y1="35.7" x2="30.9" y2="35.7"/>
<line class="st1" x1="6.4" y1="48.1" x2="30.9" y2="48.1"/>
<line class="st1" x1="15.3" y1="60.5" x2="39.8" y2="60.5"/>
</svg>
